<svg width="165" height="41" viewBox="0 0 165 41" fill="none" xmlns="http://www.w3.org/2000/svg">
<rect width="165" height="41" fill="#FCD54C"/>
<path d="M15.204 25V15.76H19.25C20.37 15.76 21.196 15.9793 21.728 16.418C22.26 16.8567 22.526 17.4773 22.526 18.28C22.526 18.7747 22.3767 19.2133 22.078 19.596C21.7793 19.9787 21.3407 20.2213 20.762 20.324V20.338C21.406 20.4313 21.9007 20.674 22.246 21.066C22.5913 21.458 22.764 21.9247 22.764 22.466C22.764 23.2593 22.4747 23.88 21.896 24.328C21.3267 24.776 20.4913 25 19.39 25H15.204ZM17.08 23.544H19.222C19.7447 23.544 20.132 23.4367 20.384 23.222C20.636 23.0073 20.762 22.7087 20.762 22.326C20.762 21.934 20.636 21.6353 20.384 21.43C20.132 21.2247 19.7447 21.122 19.222 21.122H17.08V23.544ZM17.08 19.638H18.998C20.0153 19.638 20.524 19.2413 20.524 18.448C20.524 17.6547 20.0153 17.258 18.998 17.258H17.08V19.638ZM27.6063 17.86C28.3156 17.86 28.9363 18.0047 29.4683 18.294C30.0096 18.5833 30.4296 18.9987 30.7283 19.54C31.0363 20.0813 31.1903 20.7347 31.1903 21.5C31.1903 22.256 31.0363 22.9093 30.7283 23.46C30.4296 24.0013 30.0096 24.4167 29.4683 24.706C28.9363 24.9953 28.3156 25.14 27.6063 25.14C26.9063 25.14 26.2856 24.9953 25.7443 24.706C25.2029 24.4167 24.7783 24.0013 24.4703 23.46C24.1716 22.9093 24.0223 22.256 24.0223 21.5C24.0223 20.7347 24.1716 20.0813 24.4703 19.54C24.7783 18.9987 25.2029 18.5833 25.7443 18.294C26.2856 18.0047 26.9063 17.86 27.6063 17.86ZM27.6063 19.288C27.2516 19.288 26.9483 19.372 26.6963 19.54C26.4536 19.6987 26.2669 19.9413 26.1363 20.268C26.0056 20.5947 25.9403 21.0053 25.9403 21.5C25.9403 21.9947 26.0056 22.4053 26.1363 22.732C26.2669 23.0587 26.4536 23.306 26.6963 23.474C26.9483 23.6327 27.2516 23.712 27.6063 23.712C27.9516 23.712 28.2456 23.6327 28.4883 23.474C28.7403 23.306 28.9316 23.0587 29.0623 22.732C29.1929 22.4053 29.2583 21.9947 29.2583 21.5C29.2583 21.0053 29.1929 20.5947 29.0623 20.268C28.9316 19.9413 28.7403 19.6987 28.4883 19.54C28.2456 19.372 27.9516 19.288 27.6063 19.288ZM35.9871 17.86C36.6964 17.86 37.3171 18.0047 37.8491 18.294C38.3904 18.5833 38.8104 18.9987 39.1091 19.54C39.4171 20.0813 39.5711 20.7347 39.5711 21.5C39.5711 22.256 39.4171 22.9093 39.1091 23.46C38.8104 24.0013 38.3904 24.4167 37.8491 24.706C37.3171 24.9953 36.6964 25.14 35.9871 25.14C35.2871 25.14 34.6664 24.9953 34.1251 24.706C33.5838 24.4167 33.1591 24.0013 32.8511 23.46C32.5524 22.9093 32.4031 22.256 32.4031 21.5C32.4031 20.7347 32.5524 20.0813 32.8511 19.54C33.1591 18.9987 33.5838 18.5833 34.1251 18.294C34.6664 18.0047 35.2871 17.86 35.9871 17.86ZM35.9871 19.288C35.6324 19.288 35.3291 19.372 35.0771 19.54C34.8344 19.6987 34.6478 19.9413 34.5171 20.268C34.3864 20.5947 34.3211 21.0053 34.3211 21.5C34.3211 21.9947 34.3864 22.4053 34.5171 22.732C34.6478 23.0587 34.8344 23.306 35.0771 23.474C35.3291 23.6327 35.6324 23.712 35.9871 23.712C36.3324 23.712 36.6264 23.6327 36.8691 23.474C37.1211 23.306 37.3124 23.0587 37.4431 22.732C37.5738 22.4053 37.6391 21.9947 37.6391 21.5C37.6391 21.0053 37.5738 20.5947 37.4431 20.268C37.3124 19.9413 37.1211 19.6987 36.8691 19.54C36.6264 19.372 36.3324 19.288 35.9871 19.288ZM48.302 18L45.068 21.374L44.69 21.556L42.59 23.81L42.562 21.766L46.118 18H48.302ZM43.094 14.934V25H41.176V14.934H43.094ZM45.334 20.226L48.47 25H46.3L44.018 21.346L45.334 20.226ZM57.621 20.534C57.621 20.1327 57.5044 19.82 57.271 19.596C57.047 19.372 56.7484 19.26 56.375 19.26C56.0297 19.26 55.7264 19.3487 55.465 19.526C55.2037 19.7033 55.0124 19.9973 54.891 20.408L53.253 19.904C53.4117 19.288 53.757 18.7933 54.289 18.42C54.8304 18.0467 55.5537 17.86 56.459 17.86C57.075 17.86 57.6117 17.958 58.069 18.154C58.5264 18.3407 58.881 18.6253 59.133 19.008C59.3944 19.3907 59.525 19.8713 59.525 20.45V23.292C59.525 23.6467 59.693 23.824 60.029 23.824C60.1877 23.824 60.337 23.8007 60.477 23.754L60.365 24.944C60.1224 25.0653 59.819 25.126 59.455 25.126C59.1284 25.126 58.8344 25.07 58.573 24.958C58.3117 24.846 58.1064 24.678 57.957 24.454C57.8077 24.2207 57.733 23.9313 57.733 23.586V23.53L58.069 23.474C58.013 23.8287 57.859 24.132 57.607 24.384C57.355 24.6267 57.047 24.8133 56.683 24.944C56.3284 25.0747 55.9597 25.14 55.577 25.14C55.101 25.14 54.6904 25.07 54.345 24.93C53.9997 24.7807 53.7337 24.566 53.547 24.286C53.3604 24.006 53.267 23.6607 53.267 23.25C53.267 22.7273 53.435 22.3027 53.771 21.976C54.107 21.64 54.5877 21.4113 55.213 21.29L57.845 20.758L57.831 21.948L56.151 22.284C55.8337 22.3493 55.591 22.438 55.423 22.55C55.2644 22.6527 55.185 22.8253 55.185 23.068C55.185 23.3013 55.269 23.4787 55.437 23.6C55.6144 23.7213 55.8244 23.782 56.067 23.782C56.263 23.782 56.4544 23.7587 56.641 23.712C56.8277 23.6653 56.9957 23.5907 57.145 23.488C57.2944 23.3853 57.411 23.2453 57.495 23.068C57.579 22.8907 57.621 22.676 57.621 22.424V20.534ZM68.9223 17.86C69.5477 17.86 70.075 17.9533 70.5043 18.14C70.943 18.3173 71.293 18.5647 71.5543 18.882C71.825 19.19 72.0163 19.5353 72.1283 19.918L70.3363 20.562C70.243 20.142 70.0843 19.8247 69.8603 19.61C69.6363 19.3953 69.333 19.288 68.9503 19.288C68.5957 19.288 68.2923 19.372 68.0403 19.54C67.7883 19.6987 67.597 19.946 67.4663 20.282C67.3357 20.6087 67.2703 21.0193 67.2703 21.514C67.2703 22.0087 67.3357 22.4193 67.4663 22.746C67.6063 23.0727 67.8023 23.3153 68.0543 23.474C68.3157 23.6327 68.619 23.712 68.9643 23.712C69.2443 23.712 69.4823 23.6653 69.6783 23.572C69.8743 23.4693 70.033 23.3247 70.1543 23.138C70.285 22.9513 70.3737 22.7273 70.4203 22.466L72.1563 23.026C72.0537 23.446 71.8623 23.8147 71.5823 24.132C71.3023 24.4493 70.943 24.6967 70.5043 24.874C70.0657 25.0513 69.557 25.14 68.9783 25.14C68.2597 25.14 67.625 24.9953 67.0743 24.706C66.5237 24.4167 66.099 24.0013 65.8003 23.46C65.5017 22.9187 65.3523 22.2653 65.3523 21.5C65.3523 20.7347 65.5017 20.0813 65.8003 19.54C66.099 18.9987 66.519 18.5833 67.0603 18.294C67.6017 18.0047 68.2223 17.86 68.9223 17.86ZM76.8387 17.86C77.548 17.86 78.1687 18.0047 78.7007 18.294C79.242 18.5833 79.662 18.9987 79.9607 19.54C80.2687 20.0813 80.4227 20.7347 80.4227 21.5C80.4227 22.256 80.2687 22.9093 79.9607 23.46C79.662 24.0013 79.242 24.4167 78.7007 24.706C78.1687 24.9953 77.548 25.14 76.8387 25.14C76.1387 25.14 75.518 24.9953 74.9767 24.706C74.4353 24.4167 74.0107 24.0013 73.7027 23.46C73.404 22.9093 73.2547 22.256 73.2547 21.5C73.2547 20.7347 73.404 20.0813 73.7027 19.54C74.0107 18.9987 74.4353 18.5833 74.9767 18.294C75.518 18.0047 76.1387 17.86 76.8387 17.86ZM76.8387 19.288C76.484 19.288 76.1807 19.372 75.9287 19.54C75.686 19.6987 75.4993 19.9413 75.3687 20.268C75.238 20.5947 75.1727 21.0053 75.1727 21.5C75.1727 21.9947 75.238 22.4053 75.3687 22.732C75.4993 23.0587 75.686 23.306 75.9287 23.474C76.1807 23.6327 76.484 23.712 76.8387 23.712C77.184 23.712 77.478 23.6327 77.7207 23.474C77.9727 23.306 78.164 23.0587 78.2947 22.732C78.4253 22.4053 78.4907 21.9947 78.4907 21.5C78.4907 21.0053 78.4253 20.5947 78.2947 20.268C78.164 19.9413 77.9727 19.6987 77.7207 19.54C77.478 19.372 77.184 19.288 76.8387 19.288ZM82.0275 25V18H83.7495L83.8615 20.1L83.6235 19.876C83.7355 19.4187 83.9129 19.0407 84.1555 18.742C84.3982 18.4433 84.6922 18.224 85.0375 18.084C85.3922 17.9347 85.7795 17.86 86.1995 17.86C86.6849 17.86 87.1142 17.9533 87.4875 18.14C87.8702 18.3267 88.1689 18.6113 88.3835 18.994C88.6075 19.3673 88.7195 19.8387 88.7195 20.408V25H86.8015V20.954C86.8015 20.3567 86.6849 19.946 86.4515 19.722C86.2182 19.4887 85.9149 19.372 85.5415 19.372C85.2802 19.372 85.0235 19.4373 84.7715 19.568C84.5289 19.6893 84.3282 19.89 84.1695 20.17C84.0202 20.45 83.9455 20.8233 83.9455 21.29V25H82.0275ZM93.4955 25.14C92.7862 25.14 92.1375 25.014 91.5495 24.762C90.9708 24.51 90.4995 24.1553 90.1355 23.698L91.2415 22.578C91.4655 22.914 91.7642 23.1893 92.1375 23.404C92.5108 23.6187 92.9542 23.726 93.4675 23.726C93.8315 23.726 94.1208 23.6747 94.3355 23.572C94.5595 23.46 94.6715 23.2873 94.6715 23.054C94.6715 22.9047 94.6202 22.7787 94.5175 22.676C94.4148 22.564 94.2095 22.4753 93.9015 22.41L92.6695 22.158C91.8575 21.99 91.2788 21.738 90.9335 21.402C90.5975 21.0567 90.4295 20.6133 90.4295 20.072C90.4295 19.6893 90.5415 19.33 90.7655 18.994C90.9988 18.658 91.3442 18.3873 91.8015 18.182C92.2588 17.9673 92.8282 17.86 93.5095 17.86C94.2095 17.86 94.8162 17.972 95.3295 18.196C95.8522 18.4107 96.2628 18.7327 96.5615 19.162L95.4135 20.282C95.2082 19.9553 94.9375 19.708 94.6015 19.54C94.2748 19.3627 93.9295 19.274 93.5655 19.274C93.3042 19.274 93.0802 19.302 92.8935 19.358C92.7068 19.414 92.5668 19.4933 92.4735 19.596C92.3802 19.6893 92.3335 19.8107 92.3335 19.96C92.3335 20.1093 92.3988 20.24 92.5295 20.352C92.6602 20.4547 92.8982 20.5433 93.2435 20.618L94.6715 20.912C95.3622 21.052 95.8568 21.29 96.1555 21.626C96.4542 21.9527 96.6035 22.3493 96.6035 22.816C96.6035 23.264 96.4822 23.6653 96.2395 24.02C96.0062 24.3653 95.6562 24.6407 95.1895 24.846C94.7322 25.042 94.1675 25.14 93.4955 25.14ZM100.569 25.14C100.102 25.14 99.6823 25.056 99.309 24.888C98.9357 24.72 98.637 24.454 98.413 24.09C98.1983 23.7167 98.091 23.236 98.091 22.648V18H100.009V22.186C100.009 22.7273 100.121 23.1053 100.345 23.32C100.569 23.5253 100.891 23.628 101.311 23.628C101.507 23.628 101.698 23.5953 101.885 23.53C102.072 23.4553 102.235 23.3433 102.375 23.194C102.524 23.0447 102.641 22.8533 102.725 22.62C102.809 22.3773 102.851 22.0927 102.851 21.766V18H104.769V25H103.061L102.991 23.782C102.758 24.2487 102.436 24.594 102.025 24.818C101.624 25.0327 101.138 25.14 100.569 25.14ZM108.677 14.934V22.844C108.677 23.1707 108.733 23.3993 108.845 23.53C108.957 23.6607 109.144 23.726 109.405 23.726C109.564 23.726 109.695 23.7167 109.797 23.698C109.9 23.67 110.031 23.6327 110.189 23.586L110.021 24.846C109.863 24.9393 109.662 25.0093 109.419 25.056C109.186 25.112 108.953 25.14 108.719 25.14C108.038 25.14 107.539 24.9767 107.221 24.65C106.913 24.314 106.759 23.782 106.759 23.054V14.934H108.677ZM113.49 15.858V22.718C113.49 23.054 113.574 23.3013 113.742 23.46C113.919 23.6093 114.157 23.684 114.456 23.684C114.689 23.684 114.895 23.6513 115.072 23.586C115.249 23.5113 115.408 23.4133 115.548 23.292L115.856 24.566C115.632 24.7433 115.352 24.8833 115.016 24.986C114.68 25.0887 114.325 25.14 113.952 25.14C113.485 25.14 113.07 25.07 112.706 24.93C112.351 24.79 112.071 24.566 111.866 24.258C111.67 23.95 111.572 23.5393 111.572 23.026V16.39L113.49 15.858ZM115.73 18V19.428H110.284V18H115.73ZM121.086 20.534C121.086 20.1327 120.969 19.82 120.736 19.596C120.512 19.372 120.213 19.26 119.84 19.26C119.495 19.26 119.191 19.3487 118.93 19.526C118.669 19.7033 118.477 19.9973 118.356 20.408L116.718 19.904C116.877 19.288 117.222 18.7933 117.754 18.42C118.295 18.0467 119.019 17.86 119.924 17.86C120.54 17.86 121.077 17.958 121.534 18.154C121.991 18.3407 122.346 18.6253 122.598 19.008C122.859 19.3907 122.99 19.8713 122.99 20.45V23.292C122.99 23.6467 123.158 23.824 123.494 23.824C123.653 23.824 123.802 23.8007 123.942 23.754L123.83 24.944C123.587 25.0653 123.284 25.126 122.92 25.126C122.593 25.126 122.299 25.07 122.038 24.958C121.777 24.846 121.571 24.678 121.422 24.454C121.273 24.2207 121.198 23.9313 121.198 23.586V23.53L121.534 23.474C121.478 23.8287 121.324 24.132 121.072 24.384C120.82 24.6267 120.512 24.8133 120.148 24.944C119.793 25.0747 119.425 25.14 119.042 25.14C118.566 25.14 118.155 25.07 117.81 24.93C117.465 24.7807 117.199 24.566 117.012 24.286C116.825 24.006 116.732 23.6607 116.732 23.25C116.732 22.7273 116.9 22.3027 117.236 21.976C117.572 21.64 118.053 21.4113 118.678 21.29L121.31 20.758L121.296 21.948L119.616 22.284C119.299 22.3493 119.056 22.438 118.888 22.55C118.729 22.6527 118.65 22.8253 118.65 23.068C118.65 23.3013 118.734 23.4787 118.902 23.6C119.079 23.7213 119.289 23.782 119.532 23.782C119.728 23.782 119.919 23.7587 120.106 23.712C120.293 23.6653 120.461 23.5907 120.61 23.488C120.759 23.3853 120.876 23.2453 120.96 23.068C121.044 22.8907 121.086 22.676 121.086 22.424V20.534ZM127.34 15.858V22.718C127.34 23.054 127.424 23.3013 127.592 23.46C127.769 23.6093 128.007 23.684 128.306 23.684C128.539 23.684 128.744 23.6513 128.922 23.586C129.099 23.5113 129.258 23.4133 129.398 23.292L129.706 24.566C129.482 24.7433 129.202 24.8833 128.866 24.986C128.53 25.0887 128.175 25.14 127.802 25.14C127.335 25.14 126.92 25.07 126.556 24.93C126.201 24.79 125.921 24.566 125.716 24.258C125.52 23.95 125.422 23.5393 125.422 23.026V16.39L127.34 15.858ZM129.58 18V19.428H124.134V18H129.58ZM131.843 16.992C131.442 16.992 131.143 16.908 130.947 16.74C130.751 16.5627 130.653 16.306 130.653 15.97C130.653 15.6247 130.751 15.368 130.947 15.2C131.143 15.0227 131.442 14.934 131.843 14.934C132.244 14.934 132.543 15.0227 132.739 15.2C132.935 15.368 133.033 15.6247 133.033 15.97C133.033 16.306 132.935 16.5627 132.739 16.74C132.543 16.908 132.244 16.992 131.843 16.992ZM132.795 18V25H130.877V18H132.795ZM138.02 17.86C138.73 17.86 139.35 18.0047 139.882 18.294C140.424 18.5833 140.844 18.9987 141.142 19.54C141.45 20.0813 141.604 20.7347 141.604 21.5C141.604 22.256 141.45 22.9093 141.142 23.46C140.844 24.0013 140.424 24.4167 139.882 24.706C139.35 24.9953 138.73 25.14 138.02 25.14C137.32 25.14 136.7 24.9953 136.158 24.706C135.617 24.4167 135.192 24.0013 134.884 23.46C134.586 22.9093 134.436 22.256 134.436 21.5C134.436 20.7347 134.586 20.0813 134.884 19.54C135.192 18.9987 135.617 18.5833 136.158 18.294C136.7 18.0047 137.32 17.86 138.02 17.86ZM138.02 19.288C137.666 19.288 137.362 19.372 137.11 19.54C136.868 19.6987 136.681 19.9413 136.55 20.268C136.42 20.5947 136.354 21.0053 136.354 21.5C136.354 21.9947 136.42 22.4053 136.55 22.732C136.681 23.0587 136.868 23.306 137.11 23.474C137.362 23.6327 137.666 23.712 138.02 23.712C138.366 23.712 138.66 23.6327 138.902 23.474C139.154 23.306 139.346 23.0587 139.476 22.732C139.607 22.4053 139.672 21.9947 139.672 21.5C139.672 21.0053 139.607 20.5947 139.476 20.268C139.346 19.9413 139.154 19.6987 138.902 19.54C138.66 19.372 138.366 19.288 138.02 19.288ZM143.209 25V18H144.931L145.043 20.1L144.805 19.876C144.917 19.4187 145.095 19.0407 145.337 18.742C145.58 18.4433 145.874 18.224 146.219 18.084C146.574 17.9347 146.961 17.86 147.381 17.86C147.867 17.86 148.296 17.9533 148.669 18.14C149.052 18.3267 149.351 18.6113 149.565 18.994C149.789 19.3673 149.901 19.8387 149.901 20.408V25H147.983V20.954C147.983 20.3567 147.867 19.946 147.633 19.722C147.4 19.4887 147.097 19.372 146.723 19.372C146.462 19.372 146.205 19.4373 145.953 19.568C145.711 19.6893 145.51 19.89 145.351 20.17C145.202 20.45 145.127 20.8233 145.127 21.29V25H143.209Z" fill="black"/>
</svg>
